<svg width="72" height="72" viewBox="0 0 72 72" fill="none" xmlns="http://www.w3.org/2000/svg">
<rect width="72" height="72" rx="15" fill="white"/>
<path d="M24.869 26.9425C24.8779 26.9263 24.8926 26.9135 24.9106 26.9066C26.9853 26.0086 29.1747 25.3682 31.4241 25.0016C31.4445 24.998 31.4656 25.0006 31.4844 25.009C31.5032 25.0173 31.5187 25.0311 31.5288 25.0483C31.8269 25.5588 32.0975 26.0831 32.3396 26.6193C34.7643 26.2721 37.2307 26.2721 39.6554 26.6193C39.8991 26.0817 40.1741 25.5573 40.479 25.0483C40.4895 25.0315 40.5051 25.018 40.5238 25.0097C40.5424 25.0014 40.5633 24.9985 40.5837 25.0016C42.8333 25.3675 45.0229 26.0079 47.0974 26.9066C47.1152 26.9137 47.1301 26.9259 47.1403 26.9413C51.2888 32.7857 52.4253 38.4864 51.8678 44.1165C51.8662 44.1303 51.8617 44.1436 51.8545 44.1558C51.8474 44.1679 51.8377 44.1785 51.8261 44.1871C49.4105 45.8744 46.7085 47.1623 43.8356 47.9959C43.8154 48.0016 43.7938 48.0014 43.7737 47.9951C43.7536 47.9889 43.7361 47.9771 43.7234 47.9612C43.1063 47.1692 42.5596 46.3305 42.0887 45.4537C42.0822 45.4416 42.0785 45.4284 42.0778 45.415C42.0772 45.4015 42.0795 45.388 42.0848 45.3755C42.09 45.3629 42.098 45.3516 42.1082 45.3421C42.1185 45.3327 42.1307 45.3254 42.1441 45.3208C43.0063 45.0096 43.841 44.6344 44.6404 44.1989C44.6549 44.1908 44.6671 44.1795 44.6759 44.166C44.6847 44.1524 44.6898 44.137 44.6908 44.1212C44.6918 44.1053 44.6886 44.0895 44.6816 44.075C44.6745 44.0606 44.6638 44.048 44.6504 44.0384C44.4827 43.9198 44.3149 43.7965 44.1547 43.672C44.1405 43.6609 44.1233 43.6538 44.105 43.6515C44.0867 43.6492 44.0681 43.6517 44.0513 43.6588C38.8143 45.9135 33.1446 45.9135 27.9696 43.6588C27.9527 43.6513 27.934 43.6484 27.9154 43.6505C27.8969 43.6526 27.8794 43.6597 27.8649 43.6708C27.7047 43.7953 27.5369 43.9198 27.3679 44.0384C27.3544 44.0479 27.3436 44.0604 27.3365 44.0748C27.3293 44.0892 27.3261 44.105 27.3269 44.1208C27.3278 44.1367 27.3328 44.1521 27.3415 44.1657C27.3502 44.1793 27.3623 44.1907 27.3767 44.1989C28.1743 44.6381 29.0097 45.013 29.8742 45.3196C29.8876 45.3244 29.8998 45.3319 29.9099 45.3414C29.9201 45.351 29.928 45.3625 29.9332 45.3752C29.9383 45.3878 29.9405 45.4013 29.9398 45.4149C29.939 45.4284 29.9352 45.4416 29.9286 45.4537C29.4498 46.3256 28.9039 47.1632 28.2952 47.9598C28.2828 47.9761 28.2653 47.9884 28.2452 47.9948C28.225 48.0013 28.2032 48.0016 28.1829 47.9957C25.3048 47.165 22.5982 45.8769 20.1795 44.1871C20.1677 44.179 20.1579 44.1686 20.1507 44.1566C20.1435 44.1446 20.1392 44.1314 20.1379 44.1177C19.4704 37.6087 21.2552 31.9547 24.869 26.9425ZM41.3066 40.6883C42.8833 40.6883 44.1825 39.3234 44.1825 37.647C44.1825 35.9707 42.9085 34.6056 41.3066 34.6056C39.6922 34.6056 38.4056 35.9826 38.4308 37.6469C38.4308 39.3234 39.7048 40.6883 41.3066 40.6883ZM30.6736 40.6883C32.2503 40.6883 33.5494 39.3234 33.5494 37.647C33.5494 35.9707 32.2755 34.6056 30.6736 34.6056C29.0591 34.6056 27.7725 35.9826 27.7977 37.6469C27.7977 39.3234 29.0591 40.6883 30.6736 40.6883Z" fill="#5865F2"/>
</svg>
