<svg width="72" height="72" viewBox="0 0 72 72" fill="none" xmlns="http://www.w3.org/2000/svg">
<rect width="72" height="72" rx="15" fill="#1877F2"/>
<path d="M52 36.0978C52 27.2072 44.8366 20 36 20C27.1634 20 20 27.2072 20 36.0978C20 44.1326 25.851 50.7924 33.5 52V40.751H29.4375V36.0978H33.5V32.5512C33.5 28.5167 35.8887 26.2882 39.5434 26.2882C41.294 26.2882 43.125 26.6026 43.125 26.6026V30.5642H41.1074C39.1199 30.5642 38.5 31.805 38.5 33.0781V36.0978H42.9375L42.2281 40.751H38.5V52C46.1491 50.7924 52 44.1326 52 36.0978Z" fill="white"/>
</svg>
