<svg width="72" height="72" viewBox="0 0 72 72" fill="none" xmlns="http://www.w3.org/2000/svg">
<rect width="72" height="72" rx="15" fill="white"/>
<path d="M44.5 29C45.3284 29 46 28.3284 46 27.5C46 26.6716 45.3284 26 44.5 26C43.6716 26 43 26.6716 43 27.5C43 28.3284 43.6716 29 44.5 29Z" fill="#B1155A"/>
<path fill-rule="evenodd" clip-rule="evenodd" d="M36 43C39.866 43 43 39.866 43 36C43 32.134 39.866 29 36 29C32.134 29 29 32.134 29 36C29 39.866 32.134 43 36 43ZM36 40C38.2091 40 40 38.2091 40 36C40 33.7909 38.2091 32 36 32C33.7909 32 32 33.7909 32 36C32 38.2091 33.7909 40 36 40Z" fill="#B1155A"/>
<path fill-rule="evenodd" clip-rule="evenodd" d="M20 29C20 24.0294 24.0294 20 29 20H43C47.9706 20 52 24.0294 52 29V43C52 47.9706 47.9706 52 43 52H29C24.0294 52 20 47.9706 20 43V29ZM29 23H43C46.3137 23 49 25.6863 49 29V43C49 46.3137 46.3137 49 43 49H29C25.6863 49 23 46.3137 23 43V29C23 25.6863 25.6863 23 29 23Z" fill="#B1155A"/>
</svg>
