<svg width="72" height="72" viewBox="0 0 72 72" fill="none" xmlns="http://www.w3.org/2000/svg">
<rect width="72" height="72" rx="15" fill="#00C73C"/>
<path fill-rule="evenodd" clip-rule="evenodd" d="M20 31.3548H47C49.7614 31.3548 52 33.5934 52 36.3548V36.6774C52 39.4388 49.7614 41.6774 47 41.6774L43.7419 41.6774C43.4714 47.4198 38.2601 51.9999 31.871 51.9999C25.4818 51.9999 20.2705 47.4198 20 41.6774C20 41.6774 20 41.6774 20 41.6774V31.3548ZM49.9355 36.5161C49.9355 38.2264 48.549 39.6129 46.8387 39.6129C45.1284 39.6129 43.7419 38.2264 43.7419 36.5161C43.7419 34.8058 45.1284 33.4194 46.8387 33.4194C48.549 33.4194 49.9355 34.8058 49.9355 36.5161Z" fill="white"/>
<path d="M26.1936 28.2581C26.1936 23.6973 29.8909 20 34.4517 20H41.6775C41.6775 24.5608 37.9802 28.2581 33.4194 28.2581H26.1936Z" fill="white"/>
</svg>
