<svg width="72" height="72" viewBox="0 0 72 72" fill="none" xmlns="http://www.w3.org/2000/svg">
<rect width="72" height="72" rx="15" fill="#FE2C55"/>
<path d="M50 33.1227C47.2476 33.1293 44.5627 32.2709 42.3247 30.669V41.8418C42.3239 43.9111 41.6914 45.9309 40.5117 47.6311C39.332 49.3312 37.6613 50.6307 35.7231 51.3558C33.7849 52.0808 31.6715 52.1969 29.6655 51.6885C27.6595 51.1801 25.8566 50.0714 24.4978 48.5107C23.1389 46.95 22.289 45.0116 22.0616 42.9548C21.8341 40.898 22.2401 38.8208 23.2251 37.001C24.2102 35.1811 25.7273 33.7053 27.5738 32.771C29.4202 31.8366 31.5079 31.4882 33.5577 31.7724V37.3919C32.6197 37.0969 31.6125 37.1058 30.6799 37.4173C29.7472 37.7288 28.9369 38.3271 28.3645 39.1266C27.7922 39.9262 27.4871 40.8861 27.4929 41.8694C27.4987 42.8526 27.8151 43.8089 28.3968 44.6016C28.9785 45.3944 29.7958 45.983 30.7321 46.2836C31.6683 46.5841 32.6756 46.5811 33.6101 46.2751C34.5445 45.969 35.3584 45.3755 35.9354 44.5793C36.5124 43.7832 36.8231 42.825 36.8231 41.8418V20H42.3247C42.3208 20.4646 42.3598 20.9285 42.4409 21.386C42.6321 22.4072 43.0296 23.3786 43.6091 24.2409C44.1886 25.1032 44.938 25.8382 45.8113 26.401C47.0538 27.2225 48.5105 27.6604 50 27.6601V33.1227Z" fill="white"/>
</svg>
