<svg width="72" height="72" viewBox="0 0 72 72" fill="none" xmlns="http://www.w3.org/2000/svg">
<rect width="72" height="72" rx="15" fill="#FF0000"/>
<path d="M51.3315 28.4354C50.9636 27.0831 49.8793 26.0182 48.5024 25.6568C46.0067 25 36 25 36 25C36 25 25.9933 25 23.4976 25.6568C22.1209 26.0182 21.0365 27.0831 20.6686 28.4354C20 30.8863 20 36.0002 20 36.0002C20 36.0002 20 41.114 20.6686 43.5646C21.0365 44.9169 22.1209 45.9821 23.4976 46.3434C25.9933 47 36 47 36 47C36 47 46.0067 47 48.5024 46.3434C49.8793 45.9821 50.9636 44.9169 51.3315 43.5646C52 41.114 52 36.0002 52 36.0002C52 36.0002 52 30.8863 51.3315 28.4354ZM32.7998 40.7145V31.2858L41.1135 36.0002L32.7998 40.7145Z" fill="white"/>
</svg>
